<?xml version="1.0" encoding="utf-8"?>
<svg xmlns="http://www.w3.org/2000/svg" xmlns:xlink="http://www.w3.org/1999/xlink" xml:space="preserve" width="850" height="850" viewBox="0 0 850 850"><g transform="scale(35.416666666667)" fill="#ffffff"><path d="M6.28,0.5c0,0.28-0.22,0.5-0.5,0.5H2C1.45,1,1,1.45,1,2v3.74c0,0.01,0.01,0.02,0.01,0.04c0,0.28-0.22,0.5-0.5,0.5  c-0.28,0-0.5-0.22-0.5-0.5H0V2c0-1.1,0.9-2,2-2h3.78C6.06,0,6.28,0.22,6.28,0.5z M24,5.78V2c0-1.1-0.9-2-2-2h-3.78v0.01  c-0.28,0-0.5,0.22-0.5,0.5c0,0.28,0.22,0.5,0.5,0.5c0.01,0,0.03-0.01,0.04-0.01H22c0.55,0,1,0.45,1,1v3.78c0,0.28,0.22,0.5,0.5,0.5  C23.78,6.28,24,6.06,24,5.78z M18.22,24H22c1.1,0,2-0.9,2-2v-3.78h-0.01c0-0.28-0.22-0.5-0.5-0.5c-0.28,0-0.5,0.22-0.5,0.5  c0,0.01,0.01,0.03,0.01,0.04V22c0,0.55-0.45,1-1,1h-3.78c-0.28,0-0.5,0.22-0.5,0.5C17.72,23.78,17.94,24,18.22,24z M0,18.22V22  c0,1.1,0.9,2,2,2h3.78v-0.01c0.28,0,0.5-0.22,0.5-0.5c0-0.28-0.22-0.5-0.5-0.5C5.77,22.99,5.76,23,5.74,23H2c-0.55,0-1-0.45-1-1  v-3.78c0-0.28-0.22-0.5-0.5-0.5C0.22,17.72,0,17.94,0,18.22z"/></g><g fill="#ffffff">
<g transform="translate(509,125) scale(4.12)"><rect width="6" height="6"/></g>
<g transform="translate(341,149) scale(4.12)"><rect width="6" height="6"/></g>
<g transform="translate(437,149) scale(4.12)"><rect width="6" height="6"/></g>
<g transform="translate(485,149) scale(4.12)"><rect width="6" height="6"/></g>
<g transform="translate(317,173) scale(4.12)"><rect width="6" height="6"/></g>
<g transform="translate(389,173) scale(4.12)"><rect width="6" height="6"/></g>
<g transform="translate(413,173) scale(4.12)"><rect width="6" height="6"/></g>
<g transform="translate(461,173) scale(4.12)"><rect width="6" height="6"/></g>
<g transform="translate(509,173) scale(4.12)"><rect width="6" height="6"/></g>
<g transform="translate(317,197) scale(4.12)"><rect width="6" height="6"/></g>
<g transform="translate(341,197) scale(4.12)"><rect width="6" height="6"/></g>
<g transform="translate(413,197) scale(4.12)"><rect width="6" height="6"/></g>
<g transform="translate(437,197) scale(4.12)"><rect width="6" height="6"/></g>
<g transform="translate(461,197) scale(4.12)"><rect width="6" height="6"/></g>
<g transform="translate(317,221) scale(4.12)"><rect width="6" height="6"/></g>
<g transform="translate(389,221) scale(4.12)"><rect width="6" height="6"/></g>
<g transform="translate(437,221) scale(4.12)"><rect width="6" height="6"/></g>
<g transform="translate(317,245) scale(4.12)"><rect width="6" height="6"/></g>
<g transform="translate(341,245) scale(4.12)"><rect width="6" height="6"/></g>
<g transform="translate(437,245) scale(4.12)"><rect width="6" height="6"/></g>
<g transform="translate(461,245) scale(4.12)"><rect width="6" height="6"/></g>
<g transform="translate(485,245) scale(4.12)"><rect width="6" height="6"/></g>
<g transform="translate(317,269) scale(4.12)"><rect width="6" height="6"/></g>
<g transform="translate(365,269) scale(4.12)"><rect width="6" height="6"/></g>
<g transform="translate(413,269) scale(4.12)"><rect width="6" height="6"/></g>
<g transform="translate(461,269) scale(4.12)"><rect width="6" height="6"/></g>
<g transform="translate(509,269) scale(4.12)"><rect width="6" height="6"/></g>
<g transform="translate(317,293) scale(4.12)"><rect width="6" height="6"/></g>
<g transform="translate(341,293) scale(4.12)"><rect width="6" height="6"/></g>
<g transform="translate(365,293) scale(4.12)"><rect width="6" height="6"/></g>
<g transform="translate(461,293) scale(4.12)"><rect width="6" height="6"/></g>
<g transform="translate(485,293) scale(4.12)"><rect width="6" height="6"/></g>
<g transform="translate(509,293) scale(4.12)"><rect width="6" height="6"/></g>
<g transform="translate(125,317) scale(4.12)"><rect width="6" height="6"/></g>
<g transform="translate(173,317) scale(4.12)"><rect width="6" height="6"/></g>
<g transform="translate(197,317) scale(4.12)"><rect width="6" height="6"/></g>
<g transform="translate(221,317) scale(4.12)"><rect width="6" height="6"/></g>
<g transform="translate(245,317) scale(4.12)"><rect width="6" height="6"/></g>
<g transform="translate(269,317) scale(4.12)"><rect width="6" height="6"/></g>
<g transform="translate(341,317) scale(4.12)"><rect width="6" height="6"/></g>
<g transform="translate(413,317) scale(4.12)"><rect width="6" height="6"/></g>
<g transform="translate(437,317) scale(4.12)"><rect width="6" height="6"/></g>
<g transform="translate(461,317) scale(4.12)"><rect width="6" height="6"/></g>
<g transform="translate(485,317) scale(4.12)"><rect width="6" height="6"/></g>
<g transform="translate(509,317) scale(4.12)"><rect width="6" height="6"/></g>
<g transform="translate(557,317) scale(4.12)"><rect width="6" height="6"/></g>
<g transform="translate(581,317) scale(4.12)"><rect width="6" height="6"/></g>
<g transform="translate(605,317) scale(4.12)"><rect width="6" height="6"/></g>
<g transform="translate(629,317) scale(4.12)"><rect width="6" height="6"/></g>
<g transform="translate(653,317) scale(4.12)"><rect width="6" height="6"/></g>
<g transform="translate(125,341) scale(4.12)"><rect width="6" height="6"/></g>
<g transform="translate(149,341) scale(4.12)"><rect width="6" height="6"/></g>
<g transform="translate(221,341) scale(4.12)"><rect width="6" height="6"/></g>
<g transform="translate(245,341) scale(4.12)"><rect width="6" height="6"/></g>
<g transform="translate(293,341) scale(4.12)"><rect width="6" height="6"/></g>
<g transform="translate(317,341) scale(4.12)"><rect width="6" height="6"/></g>
<g transform="translate(365,341) scale(4.12)"><rect width="6" height="6"/></g>
<g transform="translate(413,341) scale(4.12)"><rect width="6" height="6"/></g>
<g transform="translate(437,341) scale(4.12)"><rect width="6" height="6"/></g>
<g transform="translate(509,341) scale(4.12)"><rect width="6" height="6"/></g>
<g transform="translate(533,341) scale(4.12)"><rect width="6" height="6"/></g>
<g transform="translate(581,341) scale(4.12)"><rect width="6" height="6"/></g>
<g transform="translate(677,341) scale(4.12)"><rect width="6" height="6"/></g>
<g transform="translate(125,365) scale(4.12)"><rect width="6" height="6"/></g>
<g transform="translate(269,365) scale(4.12)"><rect width="6" height="6"/></g>
<g transform="translate(341,365) scale(4.12)"><rect width="6" height="6"/></g>
<g transform="translate(389,365) scale(4.12)"><rect width="6" height="6"/></g>
<g transform="translate(413,365) scale(4.12)"><rect width="6" height="6"/></g>
<g transform="translate(461,365) scale(4.12)"><rect width="6" height="6"/></g>
<g transform="translate(485,365) scale(4.12)"><rect width="6" height="6"/></g>
<g transform="translate(509,365) scale(4.12)"><rect width="6" height="6"/></g>
<g transform="translate(557,365) scale(4.12)"><rect width="6" height="6"/></g>
<g transform="translate(581,365) scale(4.12)"><rect width="6" height="6"/></g>
<g transform="translate(629,365) scale(4.12)"><rect width="6" height="6"/></g>
<g transform="translate(677,365) scale(4.12)"><rect width="6" height="6"/></g>
<g transform="translate(701,365) scale(4.12)"><rect width="6" height="6"/></g>
<g transform="translate(149,389) scale(4.12)"><rect width="6" height="6"/></g>
<g transform="translate(173,389) scale(4.12)"><rect width="6" height="6"/></g>
<g transform="translate(197,389) scale(4.12)"><rect width="6" height="6"/></g>
<g transform="translate(221,389) scale(4.12)"><rect width="6" height="6"/></g>
<g transform="translate(293,389) scale(4.12)"><rect width="6" height="6"/></g>
<g transform="translate(341,389) scale(4.12)"><rect width="6" height="6"/></g>
<g transform="translate(389,389) scale(4.12)"><rect width="6" height="6"/></g>
<g transform="translate(461,389) scale(4.12)"><rect width="6" height="6"/></g>
<g transform="translate(485,389) scale(4.12)"><rect width="6" height="6"/></g>
<g transform="translate(509,389) scale(4.12)"><rect width="6" height="6"/></g>
<g transform="translate(701,389) scale(4.12)"><rect width="6" height="6"/></g>
<g transform="translate(125,413) scale(4.12)"><rect width="6" height="6"/></g>
<g transform="translate(149,413) scale(4.12)"><rect width="6" height="6"/></g>
<g transform="translate(245,413) scale(4.12)"><rect width="6" height="6"/></g>
<g transform="translate(269,413) scale(4.12)"><rect width="6" height="6"/></g>
<g transform="translate(293,413) scale(4.12)"><rect width="6" height="6"/></g>
<g transform="translate(341,413) scale(4.12)"><rect width="6" height="6"/></g>
<g transform="translate(485,413) scale(4.12)"><rect width="6" height="6"/></g>
<g transform="translate(533,413) scale(4.12)"><rect width="6" height="6"/></g>
<g transform="translate(557,413) scale(4.12)"><rect width="6" height="6"/></g>
<g transform="translate(581,413) scale(4.12)"><rect width="6" height="6"/></g>
<g transform="translate(605,413) scale(4.12)"><rect width="6" height="6"/></g>
<g transform="translate(653,413) scale(4.12)"><rect width="6" height="6"/></g>
<g transform="translate(677,413) scale(4.12)"><rect width="6" height="6"/></g>
<g transform="translate(701,413) scale(4.12)"><rect width="6" height="6"/></g>
<g transform="translate(125,437) scale(4.12)"><rect width="6" height="6"/></g>
<g transform="translate(149,437) scale(4.12)"><rect width="6" height="6"/></g>
<g transform="translate(173,437) scale(4.12)"><rect width="6" height="6"/></g>
<g transform="translate(221,437) scale(4.12)"><rect width="6" height="6"/></g>
<g transform="translate(245,437) scale(4.12)"><rect width="6" height="6"/></g>
<g transform="translate(293,437) scale(4.12)"><rect width="6" height="6"/></g>
<g transform="translate(317,437) scale(4.12)"><rect width="6" height="6"/></g>
<g transform="translate(413,437) scale(4.12)"><rect width="6" height="6"/></g>
<g transform="translate(437,437) scale(4.12)"><rect width="6" height="6"/></g>
<g transform="translate(509,437) scale(4.12)"><rect width="6" height="6"/></g>
<g transform="translate(533,437) scale(4.12)"><rect width="6" height="6"/></g>
<g transform="translate(581,437) scale(4.12)"><rect width="6" height="6"/></g>
<g transform="translate(629,437) scale(4.12)"><rect width="6" height="6"/></g>
<g transform="translate(677,437) scale(4.12)"><rect width="6" height="6"/></g>
<g transform="translate(125,461) scale(4.12)"><rect width="6" height="6"/></g>
<g transform="translate(197,461) scale(4.12)"><rect width="6" height="6"/></g>
<g transform="translate(221,461) scale(4.12)"><rect width="6" height="6"/></g>
<g transform="translate(245,461) scale(4.12)"><rect width="6" height="6"/></g>
<g transform="translate(269,461) scale(4.12)"><rect width="6" height="6"/></g>
<g transform="translate(341,461) scale(4.12)"><rect width="6" height="6"/></g>
<g transform="translate(365,461) scale(4.12)"><rect width="6" height="6"/></g>
<g transform="translate(437,461) scale(4.12)"><rect width="6" height="6"/></g>
<g transform="translate(461,461) scale(4.12)"><rect width="6" height="6"/></g>
<g transform="translate(485,461) scale(4.12)"><rect width="6" height="6"/></g>
<g transform="translate(557,461) scale(4.12)"><rect width="6" height="6"/></g>
<g transform="translate(581,461) scale(4.12)"><rect width="6" height="6"/></g>
<g transform="translate(605,461) scale(4.12)"><rect width="6" height="6"/></g>
<g transform="translate(629,461) scale(4.12)"><rect width="6" height="6"/></g>
<g transform="translate(677,461) scale(4.12)"><rect width="6" height="6"/></g>
<g transform="translate(701,461) scale(4.12)"><rect width="6" height="6"/></g>
<g transform="translate(125,485) scale(4.12)"><rect width="6" height="6"/></g>
<g transform="translate(173,485) scale(4.12)"><rect width="6" height="6"/></g>
<g transform="translate(197,485) scale(4.12)"><rect width="6" height="6"/></g>
<g transform="translate(317,485) scale(4.12)"><rect width="6" height="6"/></g>
<g transform="translate(365,485) scale(4.12)"><rect width="6" height="6"/></g>
<g transform="translate(413,485) scale(4.12)"><rect width="6" height="6"/></g>
<g transform="translate(437,485) scale(4.12)"><rect width="6" height="6"/></g>
<g transform="translate(509,485) scale(4.12)"><rect width="6" height="6"/></g>
<g transform="translate(557,485) scale(4.12)"><rect width="6" height="6"/></g>
<g transform="translate(581,485) scale(4.12)"><rect width="6" height="6"/></g>
<g transform="translate(605,485) scale(4.12)"><rect width="6" height="6"/></g>
<g transform="translate(701,485) scale(4.12)"><rect width="6" height="6"/></g>
<g transform="translate(125,509) scale(4.12)"><rect width="6" height="6"/></g>
<g transform="translate(221,509) scale(4.12)"><rect width="6" height="6"/></g>
<g transform="translate(245,509) scale(4.12)"><rect width="6" height="6"/></g>
<g transform="translate(269,509) scale(4.12)"><rect width="6" height="6"/></g>
<g transform="translate(293,509) scale(4.12)"><rect width="6" height="6"/></g>
<g transform="translate(317,509) scale(4.12)"><rect width="6" height="6"/></g>
<g transform="translate(365,509) scale(4.12)"><rect width="6" height="6"/></g>
<g transform="translate(413,509) scale(4.12)"><rect width="6" height="6"/></g>
<g transform="translate(461,509) scale(4.12)"><rect width="6" height="6"/></g>
<g transform="translate(509,509) scale(4.12)"><rect width="6" height="6"/></g>
<g transform="translate(533,509) scale(4.12)"><rect width="6" height="6"/></g>
<g transform="translate(557,509) scale(4.12)"><rect width="6" height="6"/></g>
<g transform="translate(581,509) scale(4.12)"><rect width="6" height="6"/></g>
<g transform="translate(605,509) scale(4.12)"><rect width="6" height="6"/></g>
<g transform="translate(653,509) scale(4.12)"><rect width="6" height="6"/></g>
<g transform="translate(317,533) scale(4.12)"><rect width="6" height="6"/></g>
<g transform="translate(365,533) scale(4.12)"><rect width="6" height="6"/></g>
<g transform="translate(485,533) scale(4.12)"><rect width="6" height="6"/></g>
<g transform="translate(509,533) scale(4.12)"><rect width="6" height="6"/></g>
<g transform="translate(605,533) scale(4.12)"><rect width="6" height="6"/></g>
<g transform="translate(629,533) scale(4.12)"><rect width="6" height="6"/></g>
<g transform="translate(341,557) scale(4.12)"><rect width="6" height="6"/></g>
<g transform="translate(389,557) scale(4.12)"><rect width="6" height="6"/></g>
<g transform="translate(413,557) scale(4.12)"><rect width="6" height="6"/></g>
<g transform="translate(509,557) scale(4.12)"><rect width="6" height="6"/></g>
<g transform="translate(557,557) scale(4.12)"><rect width="6" height="6"/></g>
<g transform="translate(605,557) scale(4.12)"><rect width="6" height="6"/></g>
<g transform="translate(653,557) scale(4.12)"><rect width="6" height="6"/></g>
<g transform="translate(677,557) scale(4.12)"><rect width="6" height="6"/></g>
<g transform="translate(701,557) scale(4.12)"><rect width="6" height="6"/></g>
<g transform="translate(317,581) scale(4.12)"><rect width="6" height="6"/></g>
<g transform="translate(389,581) scale(4.12)"><rect width="6" height="6"/></g>
<g transform="translate(461,581) scale(4.12)"><rect width="6" height="6"/></g>
<g transform="translate(509,581) scale(4.12)"><rect width="6" height="6"/></g>
<g transform="translate(605,581) scale(4.12)"><rect width="6" height="6"/></g>
<g transform="translate(629,581) scale(4.12)"><rect width="6" height="6"/></g>
<g transform="translate(701,581) scale(4.12)"><rect width="6" height="6"/></g>
<g transform="translate(317,605) scale(4.12)"><rect width="6" height="6"/></g>
<g transform="translate(365,605) scale(4.12)"><rect width="6" height="6"/></g>
<g transform="translate(389,605) scale(4.12)"><rect width="6" height="6"/></g>
<g transform="translate(485,605) scale(4.12)"><rect width="6" height="6"/></g>
<g transform="translate(509,605) scale(4.12)"><rect width="6" height="6"/></g>
<g transform="translate(533,605) scale(4.12)"><rect width="6" height="6"/></g>
<g transform="translate(557,605) scale(4.12)"><rect width="6" height="6"/></g>
<g transform="translate(581,605) scale(4.12)"><rect width="6" height="6"/></g>
<g transform="translate(605,605) scale(4.12)"><rect width="6" height="6"/></g>
<g transform="translate(653,605) scale(4.12)"><rect width="6" height="6"/></g>
<g transform="translate(677,605) scale(4.12)"><rect width="6" height="6"/></g>
<g transform="translate(701,605) scale(4.12)"><rect width="6" height="6"/></g>
<g transform="translate(317,629) scale(4.12)"><rect width="6" height="6"/></g>
<g transform="translate(413,629) scale(4.12)"><rect width="6" height="6"/></g>
<g transform="translate(437,629) scale(4.12)"><rect width="6" height="6"/></g>
<g transform="translate(461,629) scale(4.12)"><rect width="6" height="6"/></g>
<g transform="translate(533,629) scale(4.12)"><rect width="6" height="6"/></g>
<g transform="translate(557,629) scale(4.12)"><rect width="6" height="6"/></g>
<g transform="translate(605,629) scale(4.12)"><rect width="6" height="6"/></g>
<g transform="translate(629,629) scale(4.12)"><rect width="6" height="6"/></g>
<g transform="translate(653,629) scale(4.12)"><rect width="6" height="6"/></g>
<g transform="translate(677,629) scale(4.12)"><rect width="6" height="6"/></g>
<g transform="translate(701,629) scale(4.12)"><rect width="6" height="6"/></g>
<g transform="translate(317,653) scale(4.12)"><rect width="6" height="6"/></g>
<g transform="translate(341,653) scale(4.12)"><rect width="6" height="6"/></g>
<g transform="translate(365,653) scale(4.12)"><rect width="6" height="6"/></g>
<g transform="translate(437,653) scale(4.12)"><rect width="6" height="6"/></g>
<g transform="translate(461,653) scale(4.12)"><rect width="6" height="6"/></g>
<g transform="translate(485,653) scale(4.12)"><rect width="6" height="6"/></g>
<g transform="translate(629,653) scale(4.12)"><rect width="6" height="6"/></g>
<g transform="translate(653,653) scale(4.12)"><rect width="6" height="6"/></g>
<g transform="translate(701,653) scale(4.12)"><rect width="6" height="6"/></g>
<g transform="translate(413,677) scale(4.12)"><rect width="6" height="6"/></g>
<g transform="translate(437,677) scale(4.12)"><rect width="6" height="6"/></g>
<g transform="translate(485,677) scale(4.12)"><rect width="6" height="6"/></g>
<g transform="translate(509,677) scale(4.12)"><rect width="6" height="6"/></g>
<g transform="translate(533,677) scale(4.12)"><rect width="6" height="6"/></g>
<g transform="translate(581,677) scale(4.12)"><rect width="6" height="6"/></g>
<g transform="translate(605,677) scale(4.12)"><rect width="6" height="6"/></g>
<g transform="translate(629,677) scale(4.12)"><rect width="6" height="6"/></g>
<g transform="translate(701,677) scale(4.12)"><rect width="6" height="6"/></g>
<g transform="translate(317,701) scale(4.12)"><rect width="6" height="6"/></g>
<g transform="translate(413,701) scale(4.12)"><rect width="6" height="6"/></g>
<g transform="translate(461,701) scale(4.12)"><rect width="6" height="6"/></g>
<g transform="translate(557,701) scale(4.12)"><rect width="6" height="6"/></g>
<g transform="translate(581,701) scale(4.12)"><rect width="6" height="6"/></g>
<g transform="translate(605,701) scale(4.12)"><rect width="6" height="6"/></g>
<g transform="translate(629,701) scale(4.12)"><rect width="6" height="6"/></g>
<g transform="translate(653,701) scale(4.12)"><rect width="6" height="6"/></g>
<g transform="translate(677,701) scale(4.12)"><rect width="6" height="6"/></g>
<g transform="translate(701,701) scale(4.12)"><rect width="6" height="6"/></g>
<g transform="translate(125,125)"><g transform="scale(12)"><path d="M0,0v14h14V0H0z M12,12H2V2h10V12z"/></g></g>
<g transform="translate(557,125)"><g transform="scale(12)"><path d="M0,0v14h14V0H0z M12,12H2V2h10V12z"/></g></g>
<g transform="translate(125,557)"><g transform="scale(12)"><path d="M0,0v14h14V0H0z M12,12H2V2h10V12z"/></g></g>
<g transform="translate(173,173)"><g transform="scale(12)"><rect width="6" height="6"/></g></g>
<g transform="translate(605,173)"><g transform="scale(12)"><rect width="6" height="6"/></g></g>
<g transform="translate(173,605)"><g transform="scale(12)"><rect width="6" height="6"/></g></g>
</g></svg>
