<svg width="238" height="219" viewBox="0 0 238 219" fill="none" xmlns="http://www.w3.org/2000/svg">
<path d="M39.6667 36.5H99.1667V91.25H39.6667V36.5ZM198.333 36.5V91.25H138.833V36.5H198.333ZM138.833 136.875H158.667V118.625H138.833V100.375H158.667V118.625H178.5V100.375H198.333V118.625H178.5V136.875H198.333V164.25H178.5V182.5H158.667V164.25H128.917V182.5H109.083V146H138.833V136.875ZM158.667 136.875V164.25H178.5V136.875H158.667ZM39.6667 182.5V127.75H99.1667V182.5H39.6667ZM59.5 54.75V73H79.3333V54.75H59.5ZM158.667 54.75V73H178.5V54.75H158.667ZM59.5 146V164.25H79.3333V146H59.5ZM39.6667 100.375H59.5V118.625H39.6667V100.375ZM89.25 100.375H128.917V136.875H109.083V118.625H89.25V100.375ZM109.083 54.75H128.917V91.25H109.083V54.75ZM19.8333 18.25V54.75H0V18.25C0 13.4098 2.08958 8.76784 5.80905 5.3453C9.52852 1.92276 14.5732 0 19.8333 0H59.5V18.25H19.8333ZM218.167 0C223.427 0 228.471 1.92276 232.191 5.3453C235.91 8.76784 238 13.4098 238 18.25V54.75H218.167V18.25H178.5V0H218.167ZM19.8333 164.25V200.75H59.5V219H19.8333C14.5732 219 9.52852 217.077 5.80905 213.655C2.08958 210.232 0 205.59 0 200.75L0 164.25H19.8333ZM218.167 200.75V164.25H238V200.75C238 205.59 235.91 210.232 232.191 213.655C228.471 217.077 223.427 219 218.167 219H178.5V200.75H218.167Z" fill="black"/>
</svg>
